<svg width="58" height="17" viewBox="0 0 58 17" fill="none" xmlns="http://www.w3.org/2000/svg">
<path d="M0.699707 7.93947L2.47068 7.05353V1.91509H4.53681V6.02262L6.50455 5.04003L7.16047 6.377L4.53681 7.69785V11.3221H9.65295V13.0779H2.47068V8.72876L1.37202 9.27643L0.699707 7.93947Z" fill="#1E2022"/>
<path d="M14.7561 11.7087C15.3683 11.7087 15.8329 11.6765 16.15 11.6121V9.45362C16.0406 9.4214 15.8821 9.38919 15.6744 9.35697C15.4667 9.32476 15.2371 9.30865 14.9857 9.30865C14.7671 9.30865 14.543 9.32476 14.3134 9.35697C14.0948 9.38919 13.8925 9.44825 13.7067 9.53416C13.5318 9.62007 13.3897 9.74356 13.2803 9.90464C13.171 10.055 13.1164 10.2483 13.1164 10.4845C13.1164 10.9463 13.2639 11.2685 13.5591 11.451C13.8543 11.6228 14.2533 11.7087 14.7561 11.7087ZM14.5922 4.44404C15.2481 4.44404 15.8001 4.52458 16.2484 4.68566C16.6966 4.84674 17.0518 5.07225 17.3142 5.36219C17.5875 5.65214 17.7788 6.00651 17.8881 6.42532C18.0084 6.83339 18.0685 7.28441 18.0685 7.77839V12.8846C17.7624 12.9491 17.2978 13.0242 16.6747 13.1101C16.0625 13.2068 15.3683 13.2551 14.5922 13.2551C14.0784 13.2551 13.6083 13.2068 13.1819 13.1101C12.7556 13.0135 12.3894 12.8578 12.0833 12.643C11.7881 12.4282 11.5531 12.149 11.3782 11.8054C11.2142 11.4617 11.1322 11.0376 11.1322 10.5329C11.1322 10.0496 11.2251 9.64155 11.411 9.30865C11.6078 8.97575 11.8701 8.70729 12.1981 8.50325C12.526 8.28848 12.9032 8.13814 13.3295 8.05223C13.7668 7.95558 14.2205 7.90726 14.6906 7.90726C14.9092 7.90726 15.1388 7.92336 15.3793 7.95558C15.6198 7.97706 15.8767 8.02001 16.15 8.08444V7.76228C16.15 7.53677 16.1226 7.322 16.068 7.11796C16.0133 6.91393 15.9149 6.73674 15.7728 6.5864C15.6416 6.42532 15.4613 6.30183 15.2317 6.21592C15.013 6.13001 14.7343 6.08705 14.3954 6.08705C13.9363 6.08705 13.5154 6.11927 13.1328 6.1837C12.7501 6.24813 12.4386 6.3233 12.1981 6.40921L11.9521 4.83063C12.2035 4.74472 12.5698 4.65881 13.0508 4.5729C13.5318 4.48699 14.0456 4.44404 14.5922 4.44404Z" fill="#1E2022"/>
<path d="M26.8033 8.90595C26.8033 8.03612 26.6011 7.35958 26.1966 6.87634C25.8031 6.39311 25.1635 6.15149 24.2781 6.15149C24.0922 6.15149 23.8954 6.16222 23.6877 6.1837C23.491 6.19444 23.2942 6.22666 23.0974 6.28035V11.0966C23.2723 11.2148 23.5019 11.3275 23.7861 11.4349C24.0813 11.5316 24.3928 11.5799 24.7208 11.5799C25.4423 11.5799 25.967 11.3383 26.295 10.855C26.6339 10.3718 26.8033 9.72209 26.8033 8.90595ZM28.8367 8.87373C28.8367 9.51805 28.7492 10.1087 28.5743 10.6456C28.4103 11.1825 28.1698 11.6443 27.8528 12.0309C27.5358 12.4175 27.1368 12.7182 26.6557 12.9329C26.1857 13.1477 25.65 13.2551 25.0488 13.2551C24.6443 13.2551 24.2726 13.2068 23.9337 13.1101C23.5948 13.0135 23.316 12.9061 23.0974 12.788V16.0579H21.1133V4.92728C21.5177 4.81989 22.0152 4.71788 22.6055 4.62123C23.1958 4.52458 23.8189 4.47626 24.4748 4.47626C25.1526 4.47626 25.7593 4.57827 26.295 4.78231C26.8307 4.98634 27.2843 5.28165 27.656 5.66825C28.0386 6.0441 28.3283 6.50586 28.5251 7.05353C28.7328 7.59047 28.8367 8.1972 28.8367 8.87373Z" fill="#1E2022"/>
<path d="M37.1865 8.90595C37.1865 8.03612 36.9843 7.35958 36.5798 6.87634C36.1862 6.39311 35.5467 6.15149 34.6612 6.15149C34.4754 6.15149 34.2786 6.16222 34.0709 6.1837C33.8741 6.19444 33.6774 6.22666 33.4806 6.28035V11.0966C33.6555 11.2148 33.8851 11.3275 34.1693 11.4349C34.4645 11.5316 34.776 11.5799 35.104 11.5799C35.8255 11.5799 36.3502 11.3383 36.6782 10.855C37.0171 10.3718 37.1865 9.72209 37.1865 8.90595ZM39.2199 8.87373C39.2199 9.51805 39.1324 10.1087 38.9575 10.6456C38.7935 11.1825 38.553 11.6443 38.236 12.0309C37.919 12.4175 37.5199 12.7182 37.0389 12.9329C36.5689 13.1477 36.0332 13.2551 35.4319 13.2551C35.0275 13.2551 34.6558 13.2068 34.3169 13.1101C33.978 13.0135 33.6992 12.9061 33.4806 12.788V16.0579H31.4965V4.92728C31.9009 4.81989 32.3983 4.71788 32.9887 4.62123C33.579 4.52458 34.2021 4.47626 34.858 4.47626C35.5358 4.47626 36.1425 4.57827 36.6782 4.78231C37.2138 4.98634 37.6675 5.28165 38.0392 5.66825C38.4218 6.0441 38.7115 6.50586 38.9083 7.05353C39.116 7.59047 39.2199 8.1972 39.2199 8.87373Z" fill="#1E2022"/>
<path d="M43.8638 7.93947C44.1152 7.68174 44.383 7.40791 44.6673 7.11796C44.9515 6.81728 45.2303 6.52197 45.5036 6.23203C45.7769 5.93134 46.0338 5.64677 46.2743 5.3783C46.5257 5.0991 46.7389 4.85748 46.9138 4.65344H49.2587C48.7121 5.25481 48.1327 5.87765 47.5205 6.52197C46.9193 7.16629 46.3125 7.7945 45.7003 8.4066C46.0283 8.67507 46.3727 9.0026 46.7334 9.38919C47.0942 9.76504 47.444 10.1677 47.7829 10.5973C48.1218 11.0268 48.4388 11.4564 48.734 11.8859C49.0291 12.3155 49.2751 12.7128 49.4719 13.0779H47.1762C46.9794 12.745 46.7498 12.396 46.4874 12.0309C46.236 11.6658 45.9627 11.3114 45.6675 10.9678C45.3724 10.6241 45.0718 10.302 44.7657 10.0013C44.4596 9.68987 44.1589 9.42677 43.8638 9.212V13.0779H41.8796V0.900284L43.8638 0.578125V7.93947Z" fill="#1E2022"/>
<path d="M54.5434 11.7087C55.1556 11.7087 55.6202 11.6765 55.9372 11.6121V9.45362C55.8279 9.4214 55.6694 9.38919 55.4617 9.35697C55.254 9.32476 55.0244 9.30865 54.773 9.30865C54.5543 9.30865 54.3302 9.32476 54.1007 9.35697C53.882 9.38919 53.6798 9.44825 53.4939 9.53416C53.319 9.62007 53.1769 9.74356 53.0676 9.90464C52.9583 10.055 52.9036 10.2483 52.9036 10.4845C52.9036 10.9463 53.0512 11.2685 53.3464 11.451C53.6415 11.6228 54.0405 11.7087 54.5434 11.7087ZM54.3794 4.44404C55.0354 4.44404 55.5874 4.52458 56.0356 4.68566C56.4838 4.84674 56.8391 5.07225 57.1015 5.36219C57.3748 5.65214 57.5661 6.00651 57.6754 6.42532C57.7957 6.83339 57.8558 7.28441 57.8558 7.77839V12.8846C57.5497 12.9491 57.0851 13.0242 56.462 13.1101C55.8498 13.2068 55.1556 13.2551 54.3794 13.2551C53.8656 13.2551 53.3956 13.2068 52.9692 13.1101C52.5429 13.0135 52.1767 12.8578 51.8706 12.643C51.5754 12.4282 51.3404 12.149 51.1654 11.8054C51.0015 11.4617 50.9195 11.0376 50.9195 10.5329C50.9195 10.0496 51.0124 9.64155 51.1982 9.30865C51.395 8.97575 51.6574 8.70729 51.9853 8.50325C52.3133 8.28848 52.6904 8.13814 53.1168 8.05223C53.5541 7.95558 54.0077 7.90726 54.4778 7.90726C54.6965 7.90726 54.926 7.92336 55.1665 7.95558C55.407 7.97706 55.6639 8.02001 55.9372 8.08444V7.76228C55.9372 7.53677 55.9099 7.322 55.8552 7.11796C55.8006 6.91393 55.7022 6.73674 55.5601 6.5864C55.4289 6.42532 55.2485 6.30183 55.0189 6.21592C54.8003 6.13001 54.5215 6.08705 54.1827 6.08705C53.7235 6.08705 53.3026 6.11927 52.92 6.1837C52.5374 6.24813 52.2258 6.3233 51.9853 6.40921L51.7394 4.83063C51.9908 4.74472 52.357 4.65881 52.838 4.5729C53.319 4.48699 53.8328 4.44404 54.3794 4.44404Z" fill="#1E2022"/>
</svg>
